<svg xmlns="http://www.w3.org/2000/svg" version="1.1" xmlns:xlink="http://www.w3.org/1999/xlink" xmlns:svgjs="http://svgjs.dev/svgjs" viewBox="0 0 800 800" width="800" height="800"><g stroke-width="1.75" stroke="hsla(0, 0%, 27%, 1.00)" fill="none"><circle r="2.0789473684210527" cx="0" cy="0" fill="hsla(0, 0%, 27%, 1.00)" stroke="none"></circle><circle r="2.0789473684210527" cx="72.72727272727273" cy="0" fill="hsla(0, 0%, 27%, 1.00)" stroke="none"></circle><circle r="2.0789473684210527" cx="145.45454545454547" cy="0" fill="hsla(0, 0%, 27%, 1.00)" stroke="none"></circle><circle r="2.0789473684210527" cx="218.1818181818182" cy="0" fill="hsla(0, 0%, 27%, 1.00)" stroke="none"></circle><circle r="2.0789473684210527" cx="290.90909090909093" cy="0" fill="hsla(0, 0%, 27%, 1.00)" stroke="none"></circle><circle r="2.0789473684210527" cx="363.6363636363637" cy="0" fill="hsla(0, 0%, 27%, 1.00)" stroke="none"></circle><circle r="2.0789473684210527" cx="436.36363636363643" cy="0" fill="hsla(0, 0%, 27%, 1.00)" stroke="none"></circle><circle r="2.0789473684210527" cx="509.0909090909092" cy="0" fill="hsla(0, 0%, 27%, 1.00)" stroke="none"></circle><circle r="2.0789473684210527" cx="581.8181818181819" cy="0" fill="hsla(0, 0%, 27%, 1.00)" stroke="none"></circle><circle r="2.0789473684210527" cx="654.5454545454546" cy="0" fill="hsla(0, 0%, 27%, 1.00)" stroke="none"></circle><circle r="2.0789473684210527" cx="727.2727272727274" cy="0" fill="hsla(0, 0%, 27%, 1.00)" stroke="none"></circle><circle r="2.0789473684210527" cx="800.0000000000001" cy="0" fill="hsla(0, 0%, 27%, 1.00)" stroke="none"></circle><circle r="2.0789473684210527" cx="0" cy="72.72727272727273" fill="hsla(0, 0%, 27%, 1.00)" stroke="none"></circle><circle r="2.0789473684210527" cx="72.72727272727273" cy="72.72727272727273" fill="hsla(0, 0%, 27%, 1.00)" stroke="none"></circle><circle r="2.0789473684210527" cx="145.45454545454547" cy="72.72727272727273" fill="hsla(0, 0%, 27%, 1.00)" stroke="none"></circle><circle r="2.0789473684210527" cx="218.1818181818182" cy="72.72727272727273" fill="hsla(0, 0%, 27%, 1.00)" stroke="none"></circle><circle r="2.0789473684210527" cx="290.90909090909093" cy="72.72727272727273" fill="hsla(0, 0%, 27%, 1.00)" stroke="none"></circle><circle r="2.0789473684210527" cx="363.6363636363637" cy="72.72727272727273" fill="hsla(0, 0%, 27%, 1.00)" stroke="none"></circle><circle r="2.0789473684210527" cx="436.36363636363643" cy="72.72727272727273" fill="hsla(0, 0%, 27%, 1.00)" stroke="none"></circle><circle r="2.0789473684210527" cx="509.0909090909092" cy="72.72727272727273" fill="hsla(0, 0%, 27%, 1.00)" stroke="none"></circle><circle r="2.0789473684210527" cx="581.8181818181819" cy="72.72727272727273" fill="hsla(0, 0%, 27%, 1.00)" stroke="none"></circle><circle r="2.0789473684210527" cx="654.5454545454546" cy="72.72727272727273" fill="hsla(0, 0%, 27%, 1.00)" stroke="none"></circle><circle r="2.0789473684210527" cx="727.2727272727274" cy="72.72727272727273" fill="hsla(0, 0%, 27%, 1.00)" stroke="none"></circle><circle r="2.0789473684210527" cx="800.0000000000001" cy="72.72727272727273" fill="hsla(0, 0%, 27%, 1.00)" stroke="none"></circle><circle r="2.0789473684210527" cx="0" cy="145.45454545454547" fill="hsla(0, 0%, 27%, 1.00)" stroke="none"></circle><circle r="2.0789473684210527" cx="72.72727272727273" cy="145.45454545454547" fill="hsla(0, 0%, 27%, 1.00)" stroke="none"></circle><circle r="2.0789473684210527" cx="145.45454545454547" cy="145.45454545454547" fill="hsla(0, 0%, 27%, 1.00)" stroke="none"></circle><circle r="2.0789473684210527" cx="218.1818181818182" cy="145.45454545454547" fill="hsla(0, 0%, 27%, 1.00)" stroke="none"></circle><circle r="2.0789473684210527" cx="290.90909090909093" cy="145.45454545454547" fill="hsla(0, 0%, 27%, 1.00)" stroke="none"></circle><circle r="2.0789473684210527" cx="363.6363636363637" cy="145.45454545454547" fill="hsla(0, 0%, 27%, 1.00)" stroke="none"></circle><circle r="2.0789473684210527" cx="436.36363636363643" cy="145.45454545454547" fill="hsla(0, 0%, 27%, 1.00)" stroke="none"></circle><circle r="2.0789473684210527" cx="509.0909090909092" cy="145.45454545454547" fill="hsla(0, 0%, 27%, 1.00)" stroke="none"></circle><circle r="2.0789473684210527" cx="581.8181818181819" cy="145.45454545454547" fill="hsla(0, 0%, 27%, 1.00)" stroke="none"></circle><circle r="2.0789473684210527" cx="654.5454545454546" cy="145.45454545454547" fill="hsla(0, 0%, 27%, 1.00)" stroke="none"></circle><circle r="2.0789473684210527" cx="727.2727272727274" cy="145.45454545454547" fill="hsla(0, 0%, 27%, 1.00)" stroke="none"></circle><circle r="2.0789473684210527" cx="800.0000000000001" cy="145.45454545454547" fill="hsla(0, 0%, 27%, 1.00)" stroke="none"></circle><circle r="2.0789473684210527" cx="0" cy="218.1818181818182" fill="hsla(0, 0%, 27%, 1.00)" stroke="none"></circle><circle r="2.0789473684210527" cx="72.72727272727273" cy="218.1818181818182" fill="hsla(0, 0%, 27%, 1.00)" stroke="none"></circle><circle r="2.0789473684210527" cx="145.45454545454547" cy="218.1818181818182" fill="hsla(0, 0%, 27%, 1.00)" stroke="none"></circle><circle r="2.0789473684210527" cx="218.1818181818182" cy="218.1818181818182" fill="hsla(0, 0%, 27%, 1.00)" stroke="none"></circle><circle r="2.0789473684210527" cx="290.90909090909093" cy="218.1818181818182" fill="hsla(0, 0%, 27%, 1.00)" stroke="none"></circle><circle r="2.0789473684210527" cx="363.6363636363637" cy="218.1818181818182" fill="hsla(0, 0%, 27%, 1.00)" stroke="none"></circle><circle r="2.0789473684210527" cx="436.36363636363643" cy="218.1818181818182" fill="hsla(0, 0%, 27%, 1.00)" stroke="none"></circle><circle r="2.0789473684210527" cx="509.0909090909092" cy="218.1818181818182" fill="hsla(0, 0%, 27%, 1.00)" stroke="none"></circle><circle r="2.0789473684210527" cx="581.8181818181819" cy="218.1818181818182" fill="hsla(0, 0%, 27%, 1.00)" stroke="none"></circle><circle r="2.0789473684210527" cx="654.5454545454546" cy="218.1818181818182" fill="hsla(0, 0%, 27%, 1.00)" stroke="none"></circle><circle r="2.0789473684210527" cx="727.2727272727274" cy="218.1818181818182" fill="hsla(0, 0%, 27%, 1.00)" stroke="none"></circle><circle r="2.0789473684210527" cx="800.0000000000001" cy="218.1818181818182" fill="hsla(0, 0%, 27%, 1.00)" stroke="none"></circle><circle r="2.0789473684210527" cx="0" cy="290.90909090909093" fill="hsla(0, 0%, 27%, 1.00)" stroke="none"></circle><circle r="2.0789473684210527" cx="72.72727272727273" cy="290.90909090909093" fill="hsla(0, 0%, 27%, 1.00)" stroke="none"></circle><circle r="2.0789473684210527" cx="145.45454545454547" cy="290.90909090909093" fill="hsla(0, 0%, 27%, 1.00)" stroke="none"></circle><circle r="2.0789473684210527" cx="218.1818181818182" cy="290.90909090909093" fill="hsla(0, 0%, 27%, 1.00)" stroke="none"></circle><circle r="2.0789473684210527" cx="290.90909090909093" cy="290.90909090909093" fill="hsla(0, 0%, 27%, 1.00)" stroke="none"></circle><circle r="2.0789473684210527" cx="363.6363636363637" cy="290.90909090909093" fill="hsla(0, 0%, 27%, 1.00)" stroke="none"></circle><circle r="2.0789473684210527" cx="436.36363636363643" cy="290.90909090909093" fill="hsla(0, 0%, 27%, 1.00)" stroke="none"></circle><circle r="2.0789473684210527" cx="509.0909090909092" cy="290.90909090909093" fill="hsla(0, 0%, 27%, 1.00)" stroke="none"></circle><circle r="2.0789473684210527" cx="581.8181818181819" cy="290.90909090909093" fill="hsla(0, 0%, 27%, 1.00)" stroke="none"></circle><circle r="2.0789473684210527" cx="654.5454545454546" cy="290.90909090909093" fill="hsla(0, 0%, 27%, 1.00)" stroke="none"></circle><circle r="2.0789473684210527" cx="727.2727272727274" cy="290.90909090909093" fill="hsla(0, 0%, 27%, 1.00)" stroke="none"></circle><circle r="2.0789473684210527" cx="800.0000000000001" cy="290.90909090909093" fill="hsla(0, 0%, 27%, 1.00)" stroke="none"></circle><circle r="2.0789473684210527" cx="0" cy="363.6363636363637" fill="hsla(0, 0%, 27%, 1.00)" stroke="none"></circle><circle r="2.0789473684210527" cx="72.72727272727273" cy="363.6363636363637" fill="hsla(0, 0%, 27%, 1.00)" stroke="none"></circle><circle r="2.0789473684210527" cx="145.45454545454547" cy="363.6363636363637" fill="hsla(0, 0%, 27%, 1.00)" stroke="none"></circle><circle r="2.0789473684210527" cx="218.1818181818182" cy="363.6363636363637" fill="hsla(0, 0%, 27%, 1.00)" stroke="none"></circle><circle r="2.0789473684210527" cx="290.90909090909093" cy="363.6363636363637" fill="hsla(0, 0%, 27%, 1.00)" stroke="none"></circle><circle r="2.0789473684210527" cx="363.6363636363637" cy="363.6363636363637" fill="hsla(0, 0%, 27%, 1.00)" stroke="none"></circle><circle r="2.0789473684210527" cx="436.36363636363643" cy="363.6363636363637" fill="hsla(0, 0%, 27%, 1.00)" stroke="none"></circle><circle r="2.0789473684210527" cx="509.0909090909092" cy="363.6363636363637" fill="hsla(0, 0%, 27%, 1.00)" stroke="none"></circle><circle r="2.0789473684210527" cx="581.8181818181819" cy="363.6363636363637" fill="hsla(0, 0%, 27%, 1.00)" stroke="none"></circle><circle r="2.0789473684210527" cx="654.5454545454546" cy="363.6363636363637" fill="hsla(0, 0%, 27%, 1.00)" stroke="none"></circle><circle r="2.0789473684210527" cx="727.2727272727274" cy="363.6363636363637" fill="hsla(0, 0%, 27%, 1.00)" stroke="none"></circle><circle r="2.0789473684210527" cx="800.0000000000001" cy="363.6363636363637" fill="hsla(0, 0%, 27%, 1.00)" stroke="none"></circle><circle r="2.0789473684210527" cx="0" cy="436.36363636363643" fill="hsla(0, 0%, 27%, 1.00)" stroke="none"></circle><circle r="2.0789473684210527" cx="72.72727272727273" cy="436.36363636363643" fill="hsla(0, 0%, 27%, 1.00)" stroke="none"></circle><circle r="2.0789473684210527" cx="145.45454545454547" cy="436.36363636363643" fill="hsla(0, 0%, 27%, 1.00)" stroke="none"></circle><circle r="2.0789473684210527" cx="218.1818181818182" cy="436.36363636363643" fill="hsla(0, 0%, 27%, 1.00)" stroke="none"></circle><circle r="2.0789473684210527" cx="290.90909090909093" cy="436.36363636363643" fill="hsla(0, 0%, 27%, 1.00)" stroke="none"></circle><circle r="2.0789473684210527" cx="363.6363636363637" cy="436.36363636363643" fill="hsla(0, 0%, 27%, 1.00)" stroke="none"></circle><circle r="2.0789473684210527" cx="436.36363636363643" cy="436.36363636363643" fill="hsla(0, 0%, 27%, 1.00)" stroke="none"></circle><circle r="2.0789473684210527" cx="509.0909090909092" cy="436.36363636363643" fill="hsla(0, 0%, 27%, 1.00)" stroke="none"></circle><circle r="2.0789473684210527" cx="581.8181818181819" cy="436.36363636363643" fill="hsla(0, 0%, 27%, 1.00)" stroke="none"></circle><circle r="2.0789473684210527" cx="654.5454545454546" cy="436.36363636363643" fill="hsla(0, 0%, 27%, 1.00)" stroke="none"></circle><circle r="2.0789473684210527" cx="727.2727272727274" cy="436.36363636363643" fill="hsla(0, 0%, 27%, 1.00)" stroke="none"></circle><circle r="2.0789473684210527" cx="800.0000000000001" cy="436.36363636363643" fill="hsla(0, 0%, 27%, 1.00)" stroke="none"></circle><circle r="2.0789473684210527" cx="0" cy="509.0909090909092" fill="hsla(0, 0%, 27%, 1.00)" stroke="none"></circle><circle r="2.0789473684210527" cx="72.72727272727273" cy="509.0909090909092" fill="hsla(0, 0%, 27%, 1.00)" stroke="none"></circle><circle r="2.0789473684210527" cx="145.45454545454547" cy="509.0909090909092" fill="hsla(0, 0%, 27%, 1.00)" stroke="none"></circle><circle r="2.0789473684210527" cx="218.1818181818182" cy="509.0909090909092" fill="hsla(0, 0%, 27%, 1.00)" stroke="none"></circle><circle r="2.0789473684210527" cx="290.90909090909093" cy="509.0909090909092" fill="hsla(0, 0%, 27%, 1.00)" stroke="none"></circle><circle r="2.0789473684210527" cx="363.6363636363637" cy="509.0909090909092" fill="hsla(0, 0%, 27%, 1.00)" stroke="none"></circle><circle r="2.0789473684210527" cx="436.36363636363643" cy="509.0909090909092" fill="hsla(0, 0%, 27%, 1.00)" stroke="none"></circle><circle r="2.0789473684210527" cx="509.0909090909092" cy="509.0909090909092" fill="hsla(0, 0%, 27%, 1.00)" stroke="none"></circle><circle r="2.0789473684210527" cx="581.8181818181819" cy="509.0909090909092" fill="hsla(0, 0%, 27%, 1.00)" stroke="none"></circle><circle r="2.0789473684210527" cx="654.5454545454546" cy="509.0909090909092" fill="hsla(0, 0%, 27%, 1.00)" stroke="none"></circle><circle r="2.0789473684210527" cx="727.2727272727274" cy="509.0909090909092" fill="hsla(0, 0%, 27%, 1.00)" stroke="none"></circle><circle r="2.0789473684210527" cx="800.0000000000001" cy="509.0909090909092" fill="hsla(0, 0%, 27%, 1.00)" stroke="none"></circle><circle r="2.0789473684210527" cx="0" cy="581.8181818181819" fill="hsla(0, 0%, 27%, 1.00)" stroke="none"></circle><circle r="2.0789473684210527" cx="72.72727272727273" cy="581.8181818181819" fill="hsla(0, 0%, 27%, 1.00)" stroke="none"></circle><circle r="2.0789473684210527" cx="145.45454545454547" cy="581.8181818181819" fill="hsla(0, 0%, 27%, 1.00)" stroke="none"></circle><circle r="2.0789473684210527" cx="218.1818181818182" cy="581.8181818181819" fill="hsla(0, 0%, 27%, 1.00)" stroke="none"></circle><circle r="2.0789473684210527" cx="290.90909090909093" cy="581.8181818181819" fill="hsla(0, 0%, 27%, 1.00)" stroke="none"></circle><circle r="2.0789473684210527" cx="363.6363636363637" cy="581.8181818181819" fill="hsla(0, 0%, 27%, 1.00)" stroke="none"></circle><circle r="2.0789473684210527" cx="436.36363636363643" cy="581.8181818181819" fill="hsla(0, 0%, 27%, 1.00)" stroke="none"></circle><circle r="2.0789473684210527" cx="509.0909090909092" cy="581.8181818181819" fill="hsla(0, 0%, 27%, 1.00)" stroke="none"></circle><circle r="2.0789473684210527" cx="581.8181818181819" cy="581.8181818181819" fill="hsla(0, 0%, 27%, 1.00)" stroke="none"></circle><circle r="2.0789473684210527" cx="654.5454545454546" cy="581.8181818181819" fill="hsla(0, 0%, 27%, 1.00)" stroke="none"></circle><circle r="2.0789473684210527" cx="727.2727272727274" cy="581.8181818181819" fill="hsla(0, 0%, 27%, 1.00)" stroke="none"></circle><circle r="2.0789473684210527" cx="800.0000000000001" cy="581.8181818181819" fill="hsla(0, 0%, 27%, 1.00)" stroke="none"></circle><circle r="2.0789473684210527" cx="0" cy="654.5454545454546" fill="hsla(0, 0%, 27%, 1.00)" stroke="none"></circle><circle r="2.0789473684210527" cx="72.72727272727273" cy="654.5454545454546" fill="hsla(0, 0%, 27%, 1.00)" stroke="none"></circle><circle r="2.0789473684210527" cx="145.45454545454547" cy="654.5454545454546" fill="hsla(0, 0%, 27%, 1.00)" stroke="none"></circle><circle r="2.0789473684210527" cx="218.1818181818182" cy="654.5454545454546" fill="hsla(0, 0%, 27%, 1.00)" stroke="none"></circle><circle r="2.0789473684210527" cx="290.90909090909093" cy="654.5454545454546" fill="hsla(0, 0%, 27%, 1.00)" stroke="none"></circle><circle r="2.0789473684210527" cx="363.6363636363637" cy="654.5454545454546" fill="hsla(0, 0%, 27%, 1.00)" stroke="none"></circle><circle r="2.0789473684210527" cx="436.36363636363643" cy="654.5454545454546" fill="hsla(0, 0%, 27%, 1.00)" stroke="none"></circle><circle r="2.0789473684210527" cx="509.0909090909092" cy="654.5454545454546" fill="hsla(0, 0%, 27%, 1.00)" stroke="none"></circle><circle r="2.0789473684210527" cx="581.8181818181819" cy="654.5454545454546" fill="hsla(0, 0%, 27%, 1.00)" stroke="none"></circle><circle r="2.0789473684210527" cx="654.5454545454546" cy="654.5454545454546" fill="hsla(0, 0%, 27%, 1.00)" stroke="none"></circle><circle r="2.0789473684210527" cx="727.2727272727274" cy="654.5454545454546" fill="hsla(0, 0%, 27%, 1.00)" stroke="none"></circle><circle r="2.0789473684210527" cx="800.0000000000001" cy="654.5454545454546" fill="hsla(0, 0%, 27%, 1.00)" stroke="none"></circle><circle r="2.0789473684210527" cx="0" cy="727.2727272727274" fill="hsla(0, 0%, 27%, 1.00)" stroke="none"></circle><circle r="2.0789473684210527" cx="72.72727272727273" cy="727.2727272727274" fill="hsla(0, 0%, 27%, 1.00)" stroke="none"></circle><circle r="2.0789473684210527" cx="145.45454545454547" cy="727.2727272727274" fill="hsla(0, 0%, 27%, 1.00)" stroke="none"></circle><circle r="2.0789473684210527" cx="218.1818181818182" cy="727.2727272727274" fill="hsla(0, 0%, 27%, 1.00)" stroke="none"></circle><circle r="2.0789473684210527" cx="290.90909090909093" cy="727.2727272727274" fill="hsla(0, 0%, 27%, 1.00)" stroke="none"></circle><circle r="2.0789473684210527" cx="363.6363636363637" cy="727.2727272727274" fill="hsla(0, 0%, 27%, 1.00)" stroke="none"></circle><circle r="2.0789473684210527" cx="436.36363636363643" cy="727.2727272727274" fill="hsla(0, 0%, 27%, 1.00)" stroke="none"></circle><circle r="2.0789473684210527" cx="509.0909090909092" cy="727.2727272727274" fill="hsla(0, 0%, 27%, 1.00)" stroke="none"></circle><circle r="2.0789473684210527" cx="581.8181818181819" cy="727.2727272727274" fill="hsla(0, 0%, 27%, 1.00)" stroke="none"></circle><circle r="2.0789473684210527" cx="654.5454545454546" cy="727.2727272727274" fill="hsla(0, 0%, 27%, 1.00)" stroke="none"></circle><circle r="2.0789473684210527" cx="727.2727272727274" cy="727.2727272727274" fill="hsla(0, 0%, 27%, 1.00)" stroke="none"></circle><circle r="2.0789473684210527" cx="800.0000000000001" cy="727.2727272727274" fill="hsla(0, 0%, 27%, 1.00)" stroke="none"></circle><circle r="2.0789473684210527" cx="0" cy="800.0000000000001" fill="hsla(0, 0%, 27%, 1.00)" stroke="none"></circle><circle r="2.0789473684210527" cx="72.72727272727273" cy="800.0000000000001" fill="hsla(0, 0%, 27%, 1.00)" stroke="none"></circle><circle r="2.0789473684210527" cx="145.45454545454547" cy="800.0000000000001" fill="hsla(0, 0%, 27%, 1.00)" stroke="none"></circle><circle r="2.0789473684210527" cx="218.1818181818182" cy="800.0000000000001" fill="hsla(0, 0%, 27%, 1.00)" stroke="none"></circle><circle r="2.0789473684210527" cx="290.90909090909093" cy="800.0000000000001" fill="hsla(0, 0%, 27%, 1.00)" stroke="none"></circle><circle r="2.0789473684210527" cx="363.6363636363637" cy="800.0000000000001" fill="hsla(0, 0%, 27%, 1.00)" stroke="none"></circle><circle r="2.0789473684210527" cx="436.36363636363643" cy="800.0000000000001" fill="hsla(0, 0%, 27%, 1.00)" stroke="none"></circle><circle r="2.0789473684210527" cx="509.0909090909092" cy="800.0000000000001" fill="hsla(0, 0%, 27%, 1.00)" stroke="none"></circle><circle r="2.0789473684210527" cx="581.8181818181819" cy="800.0000000000001" fill="hsla(0, 0%, 27%, 1.00)" stroke="none"></circle><circle r="2.0789473684210527" cx="654.5454545454546" cy="800.0000000000001" fill="hsla(0, 0%, 27%, 1.00)" stroke="none"></circle><circle r="2.0789473684210527" cx="727.2727272727274" cy="800.0000000000001" fill="hsla(0, 0%, 27%, 1.00)" stroke="none"></circle><circle r="2.0789473684210527" cx="800.0000000000001" cy="800.0000000000001" fill="hsla(0, 0%, 27%, 1.00)" stroke="none"></circle></g></svg>