<svg xmlns="http://www.w3.org/2000/svg" version="1.1" xmlns:xlink="http://www.w3.org/1999/xlink" xmlns:svgjs="http://svgjs.dev/svgjs" viewBox="0 0 800 800" opacity="0.1" width="800" height="800"><g stroke-width="1" stroke="#9ca3afff" fill="none"><rect width="100" height="100" x="0" y="0"></rect><rect width="100" height="100" x="100" y="0"></rect><rect width="100" height="100" x="200" y="0"></rect><rect width="100" height="100" x="300" y="0"></rect><rect width="100" height="100" x="400" y="0"></rect><rect width="100" height="100" x="500" y="0"></rect><rect width="100" height="100" x="600" y="0"></rect><rect width="100" height="100" x="700" y="0"></rect><rect width="100" height="100" x="800" y="0"></rect><rect width="100" height="100" x="0" y="100"></rect><rect width="100" height="100" x="100" y="100"></rect><rect width="100" height="100" x="200" y="100"></rect><rect width="100" height="100" x="300" y="100"></rect><rect width="100" height="100" x="400" y="100"></rect><rect width="100" height="100" x="500" y="100"></rect><rect width="100" height="100" x="600" y="100"></rect><rect width="100" height="100" x="700" y="100"></rect><rect width="100" height="100" x="800" y="100"></rect><rect width="100" height="100" x="0" y="200"></rect><rect width="100" height="100" x="100" y="200"></rect><rect width="100" height="100" x="200" y="200"></rect><rect width="100" height="100" x="300" y="200"></rect><rect width="100" height="100" x="400" y="200"></rect><rect width="100" height="100" x="500" y="200"></rect><rect width="100" height="100" x="600" y="200"></rect><rect width="100" height="100" x="700" y="200"></rect><rect width="100" height="100" x="800" y="200"></rect><rect width="100" height="100" x="0" y="300"></rect><rect width="100" height="100" x="100" y="300"></rect><rect width="100" height="100" x="200" y="300"></rect><rect width="100" height="100" x="300" y="300"></rect><rect width="100" height="100" x="400" y="300"></rect><rect width="100" height="100" x="500" y="300"></rect><rect width="100" height="100" x="600" y="300"></rect><rect width="100" height="100" x="700" y="300"></rect><rect width="100" height="100" x="800" y="300"></rect><rect width="100" height="100" x="0" y="400"></rect><rect width="100" height="100" x="100" y="400"></rect><rect width="100" height="100" x="200" y="400"></rect><rect width="100" height="100" x="300" y="400"></rect><rect width="100" height="100" x="400" y="400"></rect><rect width="100" height="100" x="500" y="400"></rect><rect width="100" height="100" x="600" y="400"></rect><rect width="100" height="100" x="700" y="400"></rect><rect width="100" height="100" x="800" y="400"></rect><rect width="100" height="100" x="0" y="500"></rect><rect width="100" height="100" x="100" y="500"></rect><rect width="100" height="100" x="200" y="500"></rect><rect width="100" height="100" x="300" y="500"></rect><rect width="100" height="100" x="400" y="500"></rect><rect width="100" height="100" x="500" y="500"></rect><rect width="100" height="100" x="600" y="500"></rect><rect width="100" height="100" x="700" y="500"></rect><rect width="100" height="100" x="800" y="500"></rect><rect width="100" height="100" x="0" y="600"></rect><rect width="100" height="100" x="100" y="600"></rect><rect width="100" height="100" x="200" y="600"></rect><rect width="100" height="100" x="300" y="600"></rect><rect width="100" height="100" x="400" y="600"></rect><rect width="100" height="100" x="500" y="600"></rect><rect width="100" height="100" x="600" y="600"></rect><rect width="100" height="100" x="700" y="600"></rect><rect width="100" height="100" x="800" y="600"></rect><rect width="100" height="100" x="0" y="700"></rect><rect width="100" height="100" x="100" y="700"></rect><rect width="100" height="100" x="200" y="700"></rect><rect width="100" height="100" x="300" y="700"></rect><rect width="100" height="100" x="400" y="700"></rect><rect width="100" height="100" x="500" y="700"></rect><rect width="100" height="100" x="600" y="700"></rect><rect width="100" height="100" x="700" y="700"></rect><rect width="100" height="100" x="800" y="700"></rect><rect width="100" height="100" x="0" y="800"></rect><rect width="100" height="100" x="100" y="800"></rect><rect width="100" height="100" x="200" y="800"></rect><rect width="100" height="100" x="300" y="800"></rect><rect width="100" height="100" x="400" y="800"></rect><rect width="100" height="100" x="500" y="800"></rect><rect width="100" height="100" x="600" y="800"></rect><rect width="100" height="100" x="700" y="800"></rect><rect width="100" height="100" x="800" y="800"></rect></g></svg>